<?xml version="1.0" encoding="UTF-8"?>
<svg width="512" height="512" version="1.1" viewBox="0 0 512 512" xmlns="http://www.w3.org/2000/svg">
 <path d="m512 99.006h-512v313.99c0 3.4281 0.17274 6.8165 0.50955 10.153 0.33678 3.3364 0.83636 6.622 1.4936 9.8503 0.65727 3.2283 1.4717 6.3992 2.4331 9.5032 0.9614 3.104 2.0693 6.1419 3.3185 9.1051 1.2492 2.9632 2.6386 5.8499 4.1593 8.656 1.5206 2.8061 3.1733 5.5297 4.949 8.1624 1.7757 2.6327 3.6734 5.1748 5.6879 7.6178 2.0145 2.443 4.1453 4.7886 6.3822 7.0255 2.2369 2.2369 4.5825 4.3645 7.0255 6.379 2.443 2.0145 4.9851 3.9154 7.6178 5.6911 2.6327 1.7757 5.3563 3.4284 8.1624 4.949 2.8062 1.5206 5.6928 2.9101 8.6561 4.1592 2.9632 1.2492 6.0012 2.3571 9.1051 3.3185 3.1039 0.96139 6.2749 1.7758 9.5032 2.4331 3.2283 0.65727 6.514 1.1568 9.8503 1.4936 3.3364 0.33679 6.7248 0.50955 10.153 0.50955h313.99c3.4281 0 6.8133-0.17276 10.15-0.50955 3.3364-0.33682 6.622-0.83637 9.8503-1.4936s6.3993-1.4717 9.5032-2.4331c3.104-0.9614 6.1419-2.0693 9.1051-3.3185 2.9632-1.2492 5.8531-2.6386 8.6592-4.1592 2.8061-1.5206 5.5297-3.1733 8.1624-4.949 2.6327-1.7757 5.1748-3.6766 7.6178-5.6911 2.443-2.0145 4.7854-4.1421 7.0223-6.379 2.2369-2.2369 4.3677-4.5825 6.3822-7.0255 2.0145-2.443 3.9122-4.9851 5.6879-7.6178 1.7757-2.6327 3.4284-5.3563 4.949-8.1624 1.5206-2.8061 2.9101-5.6928 4.1592-8.656 1.2492-2.9632 2.3603-6.0012 3.3216-9.1051 0.96139-3.1039 1.7727-6.2749 2.43-9.5032 0.65727-3.2283 1.16-6.514 1.4968-9.8503 0.33681-3.3364 0.50957-6.7248 0.50955-10.153z" fill="#fff" stroke-width="1.28"/>
 <g>
  <path d="m99.006 0c-3.4281 0-6.8165 0.17274-10.153 0.50955-3.3364 0.3368-6.622 0.83955-9.8503 1.4968-3.2283 0.65727-6.3992 1.4685-9.5032 2.4299-3.1039 0.96139-6.1419 2.0725-9.1051 3.3217-2.9632 1.2492-5.8499 2.6386-8.6561 4.1592-2.8061 1.5206-5.5297 3.1702-8.1624 4.9459-2.6327 1.7757-5.1748 3.6766-7.6178 5.6911-2.443 2.0145-4.7886 4.1453-7.0255 6.3822-2.2369 2.2369-4.3677 4.5793-6.3822 7.0223-2.0145 2.443-3.9122 4.9851-5.6879 7.6178-1.7757 2.6327-3.4284 5.3563-4.949 8.1624-1.5206 2.8061-2.9101 5.696-4.1592 8.6592-1.2492 2.9632-2.3571 6.0012-3.3185 9.1051-0.96138 3.1039-1.7758 6.2717-2.4331 9.5-0.65726 3.2283-1.1568 6.5171-1.4936 9.8535-0.33681 3.3364-0.50955 6.7216-0.50955 10.15h512c0-3.4281-0.17274-6.8133-0.50955-10.15-0.3368-3.3364-0.83954-6.6252-1.4968-9.8535-0.65728-3.2283-1.4686-6.3961-2.4299-9.5-0.96139-3.1039-2.0725-6.1419-3.3217-9.1051-1.2492-2.9632-2.6386-5.8531-4.1592-8.6592-1.5206-2.8062-3.1733-5.5297-4.949-8.1624-1.7757-2.6327-3.6734-5.1748-5.6879-7.6178-2.0145-2.443-4.1453-4.7854-6.3822-7.0223-2.2369-2.2369-4.5793-4.3677-7.0223-6.3822-2.443-2.0145-4.9851-3.9154-7.6178-5.6911-2.6327-1.7757-5.3563-3.4252-8.1624-4.9459-2.8062-1.5206-5.696-2.91-8.6592-4.1592-2.9632-1.2492-6.0012-2.3603-9.1051-3.3217-3.1039-0.96139-6.2748-1.7727-9.5032-2.4299-3.2283-0.65727-6.514-1.16-9.8503-1.4968-3.3364-0.33681-6.7216-0.50955-10.15-0.50955z" fill="#65b1f4" stroke-width="1.28"/>
  <g stroke-width="23.06">
   <rect x="99.465" y="266.37" width="313.07" height="52.178" rx="19.184" ry="17.052" fill="#66dbb2"/>
   <rect x="99.465" y="174.5" width="313.07" height="52.178" rx="19.184" ry="17.052" fill="#ccbdff"/>
   <rect x="99.465" y="358.24" width="313.07" height="52.178" rx="19.184" ry="17.052" fill="#fab1da"/>
  </g>
 </g>
</svg>
